<svg xmlns="http://www.w3.org/2000/svg" viewBox="0 0 24 24" width="24" height="24">
  <path fill="currentColor" d="M12 0C5.37 0 0 5.37 0 12c0 5.31 3.435 9.795 8.205 11.385.6.105.825-.255.825-.57 0-.285-.015-1.23-.015-2.34-3.33.735-4.035-1.575-4.035-1.575-.546-1.32-1.335-1.68-1.335-1.68-1.095-.735.075-.72.075-.72 1.215.09 1.86 1.215 1.86 1.215 1.065 1.845 2.805 1.305 3.495.99.105-.765.405-1.305.735-1.605-2.67-.3-5.49-1.335-5.49-5.955 0-1.32.465-2.385 1.245-3.225-.135-.3-.54-1.53.105-3.18 0 0 1.005-.315 3.3 1.23.96-.27 1.98-.405 3-.405s2.04.135 3 .405c2.295-1.56 3.3-1.23 3.3-1.23.645 1.65.24 2.88.12 3.18.765.84 1.23 1.905 1.23 3.225 0 4.635-2.82 5.625-5.505 5.925.435.375.81 1.095.81 2.22 0 1.605-.015 2.895-.015 3.3 0 .315.225.69.825.57A12.02 12.02 0 0024 12c0-6.63-5.37-12-12-12z"/>
</svg>
